<?xml version="1.0" standalone="no"?>
<!DOCTYPE svg PUBLIC "-//W3C//DTD SVG 20010904//EN"
 "http://www.w3.org/TR/2001/REC-SVG-20010904/DTD/svg10.dtd">
<svg version="1.0" xmlns="http://www.w3.org/2000/svg"
 width="900.000000pt" height="900.000000pt" viewBox="0 0 900.000000 900.000000"
 preserveAspectRatio="xMidYMid meet">
<metadata>
Created by potrace 1.14, written by Peter Selinger 2001-2017
</metadata>
<g transform="translate(0.000000,900.000000) scale(0.100000,-0.100000)"
fill="#000000" stroke="none">
<path d="M0 4500 l0 -4500 4500 0 4500 0 0 2350 c0 1933 -2 2350 -13 2350 -25
0 -67 55 -67 87 0 32 37 73 66 73 12 0 14 328 14 2070 l0 2070 -4075 0 -4075
0 -29 -32 c-24 -27 -36 -33 -71 -33 -35 0 -47 6 -71 33 l-29 32 -325 0 -325 0
0 -4500z m3045 4380 c3 -5 -1 -10 -10 -10 -9 0 -13 5 -10 10 3 6 8 10 10 10 2
0 7 -4 10 -10z m99 -310 c14 -5 32 -23 41 -40 14 -27 14 -33 0 -60 -14 -27
-20 -30 -65 -30 -58 0 -80 22 -80 83 0 30 5 40 23 47 30 12 51 12 81 0z m-755
-112 c35 -37 37 -45 17 -93 -17 -39 -42 -55 -88 -55 -97 1 -118 138 -26 167
53 17 65 15 97 -19z m4879 12 c39 -24 40 -36 3 -103 -16 -28 -32 -64 -35 -79
-8 -34 -35 -52 -104 -68 -70 -16 -137 -6 -169 27 -22 21 -24 30 -19 66 9 54
39 84 140 136 90 46 134 51 184 21z m1213 -133 c19 -14 49 -70 49 -91 0 -8
-12 -28 -26 -45 -52 -62 -156 -48 -169 23 -14 72 25 126 89 126 23 0 48 -6 57
-13z m-5506 -79 c14 -6 25 -18 26 -27 4 -53 -1 -73 -22 -99 -46 -57 -105 -68
-138 -26 -32 41 -27 86 13 128 36 39 73 46 121 24z m3655 -58 c0 -5 -7 -10
-16 -10 -8 0 -12 5 -9 10 3 6 10 10 16 10 5 0 9 -4 9 -10z m1411 -59 c34 -35
37 -66 9 -121 -29 -56 -26 -117 7 -168 19 -29 35 -42 50 -42 20 0 53 -33 53
-52 0 -4 -15 -25 -33 -45 -18 -21 -40 -50 -50 -65 -20 -32 -52 -44 -72 -28
-11 9 -15 36 -15 102 0 100 5 92 -109 187 -46 37 -49 52 -27 141 20 81 26 91
60 106 52 22 94 18 127 -15z m-3447 -4 c9 -15 7 -21 -8 -32 -35 -26 -74 13
-44 43 16 16 38 12 52 -11z m-1353 -247 c37 -20 18 -80 -26 -80 -43 0 -63 58
-27 79 22 13 29 13 53 1z m4572 -41 c28 -13 67 -87 67 -129 0 -24 -5 -31 -27
-36 -56 -14 -113 51 -113 128 0 35 5 41 42 47 4 0 18 -4 31 -10z m-6355 -11
c17 -17 15 -35 -4 -42 -22 -8 -54 2 -54 18 0 15 20 36 35 36 6 0 16 -5 23 -12z
m6997 -47 c-10 -16 -25 -3 -25 22 0 20 1 20 16 5 9 -9 13 -21 9 -27z m-3520
-1 c-5 -8 -11 -8 -17 -2 -6 6 -7 16 -3 22 5 8 11 8 17 2 6 -6 7 -16 3 -22z
m-2596 -104 c30 -56 -43 -113 -90 -70 -23 21 -24 42 -3 72 22 31 76 30 93 -2z
m3539 -23 c17 -23 15 -51 -6 -98 -14 -30 -17 -57 -14 -105 5 -80 -14 -110 -89
-138 -44 -16 -58 -17 -112 -7 l-62 11 -8 60 c-15 109 11 182 75 215 22 11 43
18 46 15 3 -3 -1 -6 -9 -6 -8 0 6 -12 30 -25 29 -17 48 -22 54 -16 6 6 1 12
-15 16 -28 7 -50 38 -42 59 8 22 75 46 109 41 17 -3 36 -13 43 -22z m-512
-131 c11 -4 35 -19 53 -35 28 -24 34 -35 38 -86 7 -75 -6 -99 -54 -103 -32 -3
-39 -8 -46 -33 -16 -51 -23 -60 -56 -63 -60 -6 -141 66 -141 125 0 44 25 114
43 125 9 5 17 14 17 20 0 7 10 22 22 35 22 23 75 30 124 15z m2711 -52 c68
-24 88 -140 23 -140 -16 0 -71 52 -86 81 -11 22 -12 34 -4 49 12 23 24 24 67
10z m-282 -65 c38 -37 31 -108 -14 -142 -9 -7 -32 -13 -53 -13 -28 0 -42 7
-62 31 -36 43 -33 81 12 132 23 26 87 23 117 -8z m-3451 -114 c16 -18 16 -21
1 -44 -10 -16 -14 -34 -9 -51 4 -19 2 -27 -11 -33 -44 -16 -75 89 -38 129 21
23 36 23 57 -1z m1737 -101 c12 -7 19 -21 19 -40 0 -53 -53 -79 -92 -43 -22
20 -23 42 -2 71 16 24 44 28 75 12z m-2891 -98 c0 -13 -12 -22 -22 -16 -10 6
-1 24 13 24 5 0 9 -4 9 -8z m5682 -9 c24 -22 23 -60 -3 -73 -46 -25 -97 53
-51 79 24 14 33 13 54 -6z m-6578 -104 c-3 -5 -10 -7 -15 -3 -5 3 -7 10 -3 15
3 5 10 7 15 3 5 -3 7 -10 3 -15z m3826 -9 c15 -28 -8 -74 -38 -78 -28 -4 -62
23 -62 49 0 46 79 69 100 29z m-1652 -137 c6 -11 6 -28 1 -41 -7 -18 -15 -23
-36 -20 -29 3 -41 32 -29 64 8 20 53 18 64 -3z m532 -53 c0 -5 -4 -10 -10 -10
-5 0 -10 5 -10 10 0 6 5 10 10 10 6 0 10 -4 10 -10z m1175 -35 c86 -23 128
-54 160 -119 21 -42 26 -66 24 -108 l-3 -53 1072 -3 1072 -2 0 -500 0 -500
-600 0 -600 0 0 -1585 0 -1585 -319 0 c-203 0 -322 -4 -326 -10 -3 -5 -21 -10
-40 -10 -19 0 -37 5 -40 10 -4 6 -87 10 -216 10 l-209 0 0 1585 0 1585 -254 0
-255 0 -3 -36 c-2 -24 -10 -41 -23 -48 -11 -6 -22 -12 -24 -14 -2 -1 2 -14 10
-28 12 -23 12 -27 -6 -40 -27 -20 -69 -14 -74 10 -2 11 5 25 14 32 15 11 16
17 6 42 -10 24 -17 28 -41 24 -22 -3 -30 0 -30 11 0 18 21 27 66 27 19 0 34 5
34 10 0 6 -110 10 -310 10 l-310 0 0 500 0 500 149 0 c136 0 150 2 176 21 23
19 26 27 20 55 -5 30 -3 34 15 34 13 0 20 -7 20 -18 0 -18 37 -42 63 -42 7 0
31 -10 52 -22 33 -18 59 -22 145 -24 67 -2 118 2 143 11 33 11 44 11 74 -1 62
-26 77 -17 84 48 6 55 35 125 67 162 17 19 128 76 147 76 6 0 38 -7 70 -15z
m676 -78 c-1 -12 -15 -9 -19 4 -3 6 1 10 8 8 6 -3 11 -8 11 -12z m-5601 -32
c44 -23 60 -53 60 -113 0 -45 -4 -58 -28 -82 -16 -15 -46 -33 -67 -39 -53 -14
-94 7 -141 71 -31 44 -38 49 -62 43 -49 -12 -74 -10 -85 7 -9 13 -7 22 7 37
23 25 48 27 82 4 25 -16 26 -16 65 30 22 25 49 48 62 50 46 9 79 7 107 -8z
m1981 -31 c41 -21 50 -38 47 -94 l-3 -51 -69 -5 c-65 -4 -72 -2 -98 23 -39 37
-38 81 3 123 27 26 36 30 63 24 17 -3 43 -12 57 -20z m615 -15 c3 -6 1 -16 -5
-22 -9 -9 -14 -8 -21 3 -5 8 -10 18 -10 23 0 11 28 8 36 -4z m2733 -34 c12
-11 12 -19 3 -40 -15 -32 -36 -41 -68 -27 -26 12 -31 40 -13 74 8 15 17 18 37
13 15 -3 33 -13 41 -20z m1321 5 c0 -5 -4 -10 -10 -10 -5 0 -10 5 -10 10 0 6
5 10 10 10 6 0 10 -4 10 -10z m-3170 -90 c0 -5 -5 -10 -11 -10 -5 0 -7 5 -4
10 3 6 8 10 11 10 2 0 4 -4 4 -10z m-1854 -15 c82 -8 195 -26 251 -38 56 -13
108 -20 116 -15 9 4 26 -2 47 -17 18 -13 70 -38 116 -54 46 -17 110 -44 143
-60 l60 -31 92 100 92 100 534 0 534 0 -158 -172 c-87 -95 -214 -233 -282
-308 -69 -74 -140 -151 -159 -172 l-34 -36 42 -46 c28 -30 47 -43 54 -37 11 9
56 -3 56 -14 0 -4 -5 -16 -11 -27 -10 -18 -9 -20 5 -15 16 6 21 -6 18 -45 -1
-9 25 -62 58 -117 320 -539 389 -1132 200 -1728 -17 -51 -27 -99 -24 -108 4
-9 -3 -25 -17 -39 -13 -13 -37 -55 -53 -92 -120 -281 -367 -602 -614 -798
-317 -251 -700 -406 -1081 -436 -378 -29 -701 16 -1008 141 -656 267 -1144
847 -1289 1534 -24 112 -44 282 -44 371 0 61 -4 85 -15 94 -14 12 -14 15 0 30
10 11 19 54 25 126 36 375 172 738 396 1055 100 141 298 347 432 448 433 327
945 464 1518 406z m-1692 -326 l19 -32 -48 -43 c-47 -41 -49 -42 -77 -28 -15
8 -28 20 -28 27 0 6 -3 22 -6 34 -9 34 35 73 83 73 33 0 42 -5 57 -31z m7640
-500 c14 -17 29 -41 32 -54 6 -24 -16 -75 -47 -109 -24 -26 -82 -25 -118 2
-21 15 -27 29 -29 71 -3 47 -1 51 19 51 17 0 20 4 16 21 -4 16 1 24 26 34 49
22 73 18 101 -16z m-8561 -269 c23 -18 25 -26 22 -77 -4 -70 -21 -87 -84 -80
-35 4 -51 12 -70 36 -20 24 -31 29 -50 24 -14 -4 -26 -1 -31 8 -11 18 -3 29
21 29 11 0 37 18 58 40 44 47 91 54 134 20z m-215 -2 c-6 -18 -28 -21 -28 -4
0 9 7 16 16 16 9 0 14 -5 12 -12z m5380 -140 c-7 -19 -38 -22 -38 -4 0 10 9
16 21 16 12 0 19 -5 17 -12z m633 -118 c22 -12 49 -60 49 -88 0 -11 -6 -25
-14 -31 -7 -6 -11 -21 -9 -34 6 -31 -13 -44 -72 -52 -45 -6 -52 -4 -74 18 -15
17 -25 43 -29 72 -4 39 -1 50 19 72 24 26 72 52 97 53 7 0 22 -5 33 -10z
m-731 -45 c0 -8 -4 -15 -10 -15 -5 0 -10 7 -10 15 0 8 5 15 10 15 6 0 10 -7
10 -15z m3498 -18 c2 -11 -3 -17 -17 -17 -23 0 -35 15 -26 31 10 15 39 6 43
-14z m-3630 1 c-6 -18 -28 -21 -28 -4 0 9 7 16 16 16 9 0 14 -5 12 -12z
m-4863 -58 c8 -25 -3 -60 -18 -60 -7 0 -22 7 -34 15 -18 13 -20 18 -10 40 15
31 53 34 62 5z m5728 -341 c-17 -17 -37 -1 -22 17 8 10 15 12 23 4 7 -7 7 -13
-1 -21z m-19 -58 c7 -10 -3 -41 -13 -41 -17 1 -33 20 -28 34 7 17 32 22 41 7z
m-1174 -146 c0 -9 -7 -18 -16 -22 -18 -7 -39 11 -30 26 11 17 46 13 46 -4z
m998 -7 c15 -15 15 -48 -1 -69 -18 -24 -65 -29 -99 -10 -27 15 -30 15 -39 -1
-5 -10 -16 -18 -23 -18 -20 0 -42 41 -38 73 3 21 9 27 28 27 13 0 24 -5 24
-11 0 -13 73 -2 78 12 5 13 56 11 70 -3z m1577 -41 c-5 -27 -11 -34 -23 -30
-10 3 -23 7 -30 9 -8 2 -1 15 20 33 18 16 34 28 36 26 2 -2 0 -19 -3 -38z
m-2457 24 c8 -4 12 -19 10 -32 -4 -30 -45 -33 -62 -6 -9 15 -7 21 8 33 23 16
26 17 44 5z m250 -98 c5 -17 -26 -29 -40 -15 -6 6 -7 15 -3 22 9 14 37 9 43
-7z m504 -25 c-9 -9 -15 -9 -24 0 -9 9 -7 12 12 12 19 0 21 -3 12 -12z m322
-84 c13 -33 4 -42 -23 -25 -14 9 -9 41 8 41 5 0 12 -7 15 -16z m1422 -320 c-5
-19 -1 -27 19 -36 14 -6 25 -15 25 -20 0 -4 20 -8 45 -8 54 0 115 -28 138 -64
23 -34 22 -108 -1 -136 -24 -30 -118 -64 -172 -62 -65 3 -90 36 -90 120 0 37
6 75 15 92 9 17 11 30 5 30 -5 0 -8 17 -6 40 2 22 0 43 -5 46 -6 3 -5 11 2 20
16 20 32 6 25 -22z m-2356 -104 c0 -5 -4 -10 -10 -10 -5 0 -10 5 -10 10 0 6 5
10 10 10 6 0 10 -4 10 -10z m-4680 -118 c12 -10 21 -26 19 -36 -3 -14 -10 -11
-38 18 -37 39 -23 52 19 18z m4490 -302 c0 -5 -4 -10 -10 -10 -5 0 -10 5 -10
10 0 6 5 10 10 10 6 0 10 -4 10 -10z m1099 -82 c0 -7 -4 -22 -8 -33 -7 -17 -8
-17 -13 8 -3 14 -3 29 0 32 10 9 22 5 21 -7z m-1325 -112 c20 -43 20 -51 -1
-71 -9 -10 -24 -31 -34 -49 -19 -36 -40 -43 -62 -21 -12 12 -14 22 -7 41 7 16
7 32 0 44 -14 27 -12 40 6 40 14 0 14 3 4 15 -10 13 -9 15 8 15 12 0 24 5 27
10 13 21 43 9 59 -24z m245 -40 c9 -11 10 -20 1 -35 -14 -26 -32 -27 -55 -1
-15 16 -15 22 -5 35 16 19 44 19 59 1z m788 -68 c19 -15 16 -52 -5 -78 -15
-18 -24 -21 -50 -15 -54 11 -61 50 -19 103 11 14 52 9 74 -10z m-507 -25 c0
-7 -11 -13 -25 -13 -14 0 -25 6 -25 13 0 6 11 12 25 12 14 0 25 -6 25 -12z
m-849 -99 c56 -28 75 -59 86 -142 3 -27 16 -59 30 -75 13 -16 20 -34 17 -40
-18 -31 -39 -47 -64 -47 -32 0 -50 17 -50 47 0 22 -3 23 -47 18 -89 -10 -170
60 -160 137 6 47 40 95 80 113 45 19 51 18 108 -11z m1389 -49 c0 -8 -7 -15
-15 -15 -8 0 -15 7 -15 15 0 8 7 15 15 15 8 0 15 -7 15 -15z m-22 -204 c23
-14 10 -46 -21 -49 -31 -4 -46 20 -27 43 14 17 29 19 48 6z m-440 -58 c-2 -10
-10 -18 -18 -18 -8 0 -16 8 -18 18 -2 12 3 17 18 17 15 0 20 -5 18 -17z m330
-20 c2 -8 -5 -13 -17 -13 -12 0 -24 -7 -27 -15 -7 -17 -34 -21 -34 -5 0 6 6
19 13 30 13 23 57 24 65 3z m-4477 -103 c31 -17 21 -98 -15 -122 -20 -14 -56
-8 -76 12 -57 57 18 148 91 110z m6439 -30 c0 -5 -4 -10 -10 -10 -5 0 -10 5
-10 10 0 6 5 10 10 10 6 0 10 -4 10 -10z m348 -37 c-2 -10 -10 -18 -18 -18 -8
0 -16 8 -18 18 -2 12 3 17 18 17 15 0 20 -5 18 -17z m-4383 -404 c8 -23 1 -34
-14 -24 -13 8 -15 45 -2 45 5 0 13 -9 16 -21z m3233 -27 c4 -25 -37 -56 -62
-46 -22 8 -21 60 1 72 23 14 57 -1 61 -26z m-1469 -88 c29 -37 27 -78 -4 -98
-36 -23 -70 -20 -89 9 -22 33 -20 64 6 92 28 30 62 29 87 -3z m1120 -46 c14
-24 14 -30 -1 -62 -33 -68 -128 -56 -128 17 0 72 96 105 129 45z m1831 -120
c-1 -55 -53 -73 -66 -22 -8 32 2 44 37 44 24 0 29 -4 29 -22z m-3193 -13 c2
-6 -3 -20 -11 -30 -14 -19 -16 -19 -32 -3 -22 22 -11 50 18 46 12 -2 23 -8 25
-13z m2167 -21 c32 -33 47 -85 36 -124 -11 -37 -58 -100 -76 -100 -20 0 -127
60 -146 82 -42 48 -9 116 72 151 53 23 84 20 114 -9z m-260 1 c6 -16 -26 -55
-44 -55 -18 0 -32 40 -19 56 15 19 55 18 63 -1z m-4224 -54 c15 -29 3 -49 -45
-70 -29 -13 -44 -27 -49 -45 -8 -33 -21 -33 -51 0 -26 28 -41 83 -31 110 6 16
8 16 24 0 25 -21 45 -20 67 4 23 26 71 26 85 1z m5345 -126 c29 -28 32 -51 8
-77 -36 -40 -122 -4 -107 45 17 59 60 72 99 32z m-5705 -75 c24 -24 26 -76 5
-106 -8 -12 -30 -24 -52 -27 -49 -8 -83 21 -83 72 0 70 82 109 130 61z m2427
-2 c41 -18 63 -39 79 -77 46 -111 -30 -238 -140 -233 -62 3 -109 28 -140 75
-23 35 -27 50 -23 89 7 77 47 122 137 152 27 8 58 6 87 -6z m2254 -24 c67 -34
45 -104 -32 -104 -60 0 -79 51 -34 95 29 29 28 29 66 9z m-643 -22 c2 -7 -3
-12 -12 -12 -9 0 -16 7 -16 16 0 17 22 14 28 -4z m501 -108 c22 -28 30 -117
11 -129 -21 -13 -67 105 -54 139 9 23 19 20 43 -10z m-3842 -82 c7 -4 15 -22
19 -39 5 -25 2 -34 -17 -47 -33 -23 -64 -20 -83 9 -22 33 -20 51 6 69 24 17
56 20 75 8z m1193 -186 c0 -8 -5 -18 -11 -22 -14 -8 -33 11 -25 25 10 16 36
13 36 -3z m-1080 -26 c20 -12 1 -45 -26 -45 -22 0 -32 34 -12 46 17 11 20 11
38 -1z m1360 -194 c0 -8 -4 -17 -9 -21 -12 -7 -24 12 -16 25 9 15 25 12 25 -4z
m-702 -159 c18 -21 0 -40 -23 -24 -10 8 -15 19 -11 25 9 16 21 15 34 -1z"/>
<path d="M2405 5435 c-171 -40 -282 -101 -401 -221 -99 -99 -148 -169 -203
-293 -53 -119 -61 -151 -34 -151 29 0 44 -41 31 -82 -18 -56 -24 -63 -54 -66
-16 -2 -32 -7 -36 -10 -15 -15 -27 -253 -18 -360 19 -227 114 -515 180 -542
28 -12 60 -62 60 -96 0 -33 28 -52 70 -47 33 5 40 2 55 -21 11 -17 15 -36 12
-55 -7 -32 7 -51 38 -51 12 0 31 -13 44 -31 32 -44 145 -93 272 -119 136 -29
361 -24 479 10 392 112 634 442 685 938 4 33 0 47 -15 62 -25 25 -25 37 0 45
24 8 26 56 10 182 -20 147 -80 367 -109 396 -4 4 -57 -46 -117 -112 l-109
-120 -160 -1 c-88 -1 -203 -1 -255 0 -68 1 -101 -3 -115 -13 -16 -13 -22 -13
-41 -1 -17 12 -67 14 -257 12 -130 -1 -238 0 -241 2 -2 3 53 66 122 141 70 74
171 184 225 244 l98 109 -25 13 c-36 19 -33 41 7 45 28 3 32 6 30 31 -2 31 8
34 43 11 25 -17 26 -16 69 30 43 47 43 48 24 67 -23 23 -24 33 -4 52 8 8 11
17 8 21 -4 3 -65 6 -137 5 -100 0 -154 -6 -231 -24z m-415 -332 c-1 -14 -27
-43 -38 -43 -21 0 -25 23 -7 37 20 14 45 18 45 6z m860 -583 c0 -5 -4 -10 -9
-10 -6 0 -13 5 -16 10 -3 6 1 10 9 10 9 0 16 -4 16 -10z m-289 -61 c7 -14 5
-23 -11 -39 -38 -38 -88 -15 -76 34 9 38 67 42 87 5z m69 -8 c0 -26 -17 -36
-36 -21 -11 10 -12 16 -3 26 17 20 39 17 39 -5z m153 -75 c7 -18 -18 -40 -37
-33 -20 8 -8 47 14 47 10 0 20 -6 23 -14z m-98 -116 c0 -22 -29 -18 -33 3 -3
14 1 18 15 15 10 -2 18 -10 18 -18z m-126 -67 c23 -28 21 -54 -7 -85 -22 -26
-44 -22 -76 11 -21 22 -26 34 -20 55 12 51 70 62 103 19z m-669 -63 c0 -5 -7
-10 -16 -10 -8 0 -12 5 -9 10 3 6 10 10 16 10 5 0 9 -4 9 -10z m6 -44 c19 -20
18 -23 -14 -34 -33 -11 -68 8 -59 33 8 19 54 20 73 1z m244 -33 c-1 -17 -50
-54 -67 -51 -31 6 -22 42 12 49 44 10 55 10 55 2z m414 -19 c23 -22 20 -41 -9
-60 -20 -13 -28 -14 -40 -4 -21 18 -19 39 8 61 27 22 23 22 41 3z m414 -12 c2
-7 -2 -10 -12 -6 -9 3 -16 11 -16 16 0 13 23 5 28 -10z m-38 -137 c0 -8 -4
-15 -9 -15 -13 0 -22 16 -14 24 11 11 23 6 23 -9z m-350 -21 c0 -17 -24 -29
-40 -19 -8 5 -6 13 6 26 18 20 34 17 34 -7z m-110 -49 c7 -8 23 -15 37 -15 13
0 34 -7 47 -15 13 -8 32 -15 42 -14 37 4 54 -1 54 -15 0 -8 7 -16 15 -20 23
-8 -4 -46 -33 -46 -14 0 -26 -8 -31 -22 -16 -41 -79 -104 -114 -115 -52 -16
-83 -5 -121 39 -66 76 -53 157 34 209 54 33 54 33 70 14z"/>
<path d="M2535 3650 c3 -5 10 -10 16 -10 5 0 9 5 9 10 0 6 -7 10 -16 10 -8 0
-12 -4 -9 -10z"/>
<path d="M2825 5430 c3 -5 12 -7 20 -3 21 7 19 13 -6 13 -11 0 -18 -4 -14 -10z"/>
<path d="M7525 3710 c3 -5 8 -10 11 -10 2 0 4 5 4 10 0 6 -5 10 -11 10 -5 0
-7 -4 -4 -10z"/>
</g>
</svg>
