<?xml version="1.0" standalone="no"?>
<!DOCTYPE svg PUBLIC "-//W3C//DTD SVG 20010904//EN"
 "http://www.w3.org/TR/2001/REC-SVG-20010904/DTD/svg10.dtd">
<svg version="1.0" xmlns="http://www.w3.org/2000/svg"
 width="640.000000pt" height="640.000000pt" viewBox="0 0 640.000000 640.000000"
 preserveAspectRatio="xMidYMid meet">
<metadata>
Created by potrace 1.14, written by Peter Selinger 2001-2017
</metadata>
<g transform="translate(0.000000,640.000000) scale(0.100000,-0.100000)"
fill="#000000" stroke="none">
<path d="M0 5285 l0 -1115 21 12 c18 11 23 10 40 -11 25 -30 9 -55 -33 -49
l-28 5 0 -2064 0 -2063 3200 0 3200 0 0 3200 0 3200 -794 0 -793 0 5 -25 c5
-30 -21 -65 -50 -65 -29 0 -56 34 -51 64 l5 26 -2361 0 -2361 0 0 -1115z
m3148 973 c17 -17 15 -38 -5 -60 -22 -24 -37 -23 -52 6 -26 47 20 91 57 54z
m-2771 -20 c-3 -8 -6 -5 -6 6 -1 11 2 17 5 13 3 -3 4 -12 1 -19z m3313 -32 c0
-8 -7 -16 -15 -20 -10 -4 -15 1 -15 14 0 11 7 20 15 20 8 0 15 -6 15 -14z
m1170 -39 c72 -18 117 -47 152 -98 52 -78 50 -160 -5 -243 -48 -72 -105 -100
-205 -99 -75 1 -98 10 -146 58 -61 61 -76 90 -75 146 1 99 51 181 133 218 79
35 74 35 146 18z m690 -88 c0 -5 -4 -9 -10 -9 -5 0 -10 7 -10 16 0 8 5 12 10
9 6 -3 10 -10 10 -16z m-3633 -65 c37 -28 46 -54 35 -104 l-8 -35 -67 0 c-58
1 -71 4 -93 26 -38 38 -36 85 6 122 39 34 73 32 127 -9z m608 -13 c7 -12 -12
-24 -25 -16 -11 7 -4 25 10 25 5 0 11 -4 15 -9z m2733 -21 c33 -21 34 -28 4
-62 -30 -35 -85 -10 -75 34 12 57 19 59 71 28z m-1250 -12 c-2 -18 4 -24 42
-35 141 -40 180 -101 131 -208 -27 -60 -45 -70 -116 -69 -105 3 -155 43 -155
125 0 37 7 57 36 100 33 47 36 56 26 81 -10 26 -8 28 14 28 20 0 25 -4 22 -22z
m490 -103 c4 -33 -18 -55 -55 -55 -30 0 -41 41 -19 74 13 20 20 23 43 17 21
-6 29 -14 31 -36z m-1088 26 c0 -6 -4 -13 -10 -16 -5 -3 -10 1 -10 9 0 9 5 16
10 16 6 0 10 -4 10 -9z m-2341 -65 c9 -7 30 -18 46 -23 66 -20 83 -132 30
-195 l-25 -29 -10 27 c-10 26 -11 26 -24 8 -7 -10 -17 -30 -21 -43 -6 -21 -12
-23 -47 -18 -41 6 -78 35 -78 62 0 8 -6 15 -14 15 -26 0 -28 49 -4 88 13 20
23 40 24 45 1 4 2 11 3 15 0 4 11 20 23 35 24 30 70 37 97 13z m884 -16 c8
-11 17 -17 20 -14 11 11 20 -49 10 -65 -12 -20 -69 -27 -89 -10 -23 19 -18 74
9 92 29 21 33 21 50 -3z m864 -136 c25 -21 30 -30 24 -47 -5 -12 -15 -22 -22
-22 -9 0 -13 -10 -11 -30 l3 -30 -58 0 c-55 0 -58 1 -55 23 2 27 20 47 49 56
24 8 34 36 21 60 -14 25 13 20 49 -10z m-1960 -60 c4 -11 -1 -22 -12 -31 -16
-11 -21 -11 -33 1 -8 8 -12 22 -9 30 8 21 46 21 54 0z m-237 -130 c66 -56 80
-140 34 -210 -61 -94 -169 -101 -229 -14 -37 53 -41 97 -16 151 42 90 147 126
211 73z m1715 -24 c3 -5 3 -15 -1 -22 -4 -7 -8 -22 -9 -35 -1 -27 -19 -48 -34
-39 -15 10 -14 42 4 76 16 31 29 37 40 20z m-1435 -19 c10 -20 4 -51 -10 -51
-11 0 -26 21 -34 48 -6 18 -3 22 13 22 11 0 25 -9 31 -19z m419 -134 c15 4 21
-2 26 -27 4 -17 4 -34 1 -37 -3 -4 -6 -1 -6 5 0 6 -6 9 -14 6 -16 -6 -36 25
-35 53 0 10 3 13 5 7 3 -7 13 -10 23 -7z m-209 -26 c0 -14 -28 -46 -35 -40
-12 12 6 58 21 52 8 -3 14 -8 14 -12z m1415 -64 c18 -19 0 -47 -30 -47 -24 0
-42 30 -30 50 9 14 44 12 60 -3z m1145 -45 c0 -13 -12 -22 -22 -16 -10 6 -1
24 13 24 5 0 9 -4 9 -8z m-2352 -50 c3 -16 -2 -22 -17 -22 -24 0 -35 15 -27
36 9 23 40 13 44 -14z m252 -16 c0 -3 -4 -8 -10 -11 -5 -3 -10 -1 -10 4 0 6 5
11 10 11 6 0 10 -2 10 -4z m1473 -35 c9 -11 9 -15 -2 -18 -11 -5 -11 -7 0 -14
11 -7 10 -9 -4 -9 -10 0 -16 -4 -12 -10 3 -5 12 -7 20 -3 11 4 15 -2 15 -21 0
-32 -28 -46 -45 -23 -7 10 -17 17 -22 17 -6 0 -16 6 -22 14 -9 11 -7 22 9 49
21 36 40 41 63 18z m-545 -30 c19 -2 14 -46 -7 -65 -27 -24 -66 -5 -57 27 3
12 6 27 6 33 0 6 10 10 23 9 12 -1 28 -3 35 -4z m-2103 -11 c-3 -5 -10 -10
-16 -10 -5 0 -9 5 -9 10 0 6 7 10 16 10 8 0 12 -4 9 -10z m2400 -50 c-3 -5
-11 -10 -16 -10 -6 0 -7 5 -4 10 3 6 11 10 16 10 6 0 7 -4 4 -10z m-55 -19 c0
-5 -7 -12 -16 -15 -22 -9 -24 -8 -24 9 0 8 9 15 20 15 11 0 20 -4 20 -9z
m2819 -79 c36 -26 51 -59 51 -111 0 -58 -30 -104 -84 -130 -67 -33 -110 -23
-168 38 -45 46 -61 81 -38 81 6 0 10 14 10 30 0 61 44 108 115 122 30 6 85 -8
114 -30z m-1589 24 c0 -3 -4 -8 -10 -11 -5 -3 -10 -1 -10 4 0 6 5 11 10 11 6
0 10 -2 10 -4z m323 -20 c10 -8 17 -27 17 -48 0 -36 -19 -61 -56 -72 -24 -7
-48 16 -58 57 -6 24 -4 27 19 27 18 0 25 5 25 18 0 34 22 41 53 18z m731 -24
c2 -4 0 -14 -5 -22 -8 -13 -10 -13 -19 0 -5 8 -10 18 -10 23 0 10 28 9 34 -1z
m-3544 -31 c10 -20 4 -51 -10 -51 -5 0 -15 -3 -23 -6 -20 -7 -40 30 -32 56 8
26 51 26 65 1z m1250 -9 c0 -10 5 -23 12 -30 8 -8 8 -15 -2 -27 -10 -12 -10
-15 3 -15 21 0 30 -40 9 -41 -10 -1 -21 -1 -26 0 -4 1 -14 -4 -22 -10 -8 -7
-17 -9 -21 -6 -3 4 -11 -1 -18 -10 -12 -16 -40 -9 -29 8 3 5 10 6 16 3 8 -5 9
-1 5 10 -4 10 -3 15 3 11 6 -3 10 -1 10 4 0 6 -7 11 -15 11 -8 0 -15 9 -15 20
0 11 7 20 15 20 9 0 18 12 21 29 6 26 16 35 47 40 4 0 7 -7 7 -17z m1450 7 c0
-10 -27 -19 -34 -12 -11 12 -6 19 14 19 11 0 20 -3 20 -7z m-1945 -19 c-3 -5
-11 -10 -16 -10 -6 0 -7 5 -4 10 3 6 11 10 16 10 6 0 7 -4 4 -10z m2973 4 c15
-4 25 -17 29 -35 3 -16 9 -29 14 -29 15 0 10 -40 -8 -71 -23 -39 -74 -53 -119
-34 -41 17 -52 38 -52 99 1 44 4 49 32 62 34 14 68 17 104 8z m-3594 -33 c9
-14 -4 -41 -19 -41 -17 0 -38 27 -30 40 8 12 42 13 49 1z m1391 -26 c11 -4 37
-14 57 -23 35 -16 38 -20 38 -58 0 -32 -6 -47 -27 -67 -60 -56 -60 -58 -1 -52
146 13 183 14 293 5 126 -11 281 -45 382 -85 44 -17 72 -23 94 -18 28 5 31 4
26 -11 -5 -12 2 -22 25 -34 106 -57 223 -145 308 -232 94 -95 192 -221 225
-292 14 -28 25 -37 52 -41 62 -10 82 -49 46 -89 -16 -18 -15 -25 19 -131 50
-153 57 -187 69 -334 21 -263 -28 -493 -157 -741 -30 -57 -54 -116 -54 -131 0
-26 -31 -67 -42 -56 -3 3 -32 -22 -64 -56 -222 -231 -377 -337 -606 -415 -170
-58 -241 -69 -453 -68 -202 1 -272 10 -429 58 -89 28 -266 114 -336 165 -43
31 -70 39 -70 21 0 -5 -18 -14 -41 -20 -37 -10 -43 -9 -75 15 -31 23 -34 31
-34 75 0 27 5 52 10 55 17 11 11 23 -34 73 -146 165 -265 389 -317 600 -98
392 -21 796 214 1129 35 49 66 94 71 101 4 7 -40 62 -126 153 -154 164 -258
281 -258 292 0 4 152 7 338 7 l338 0 63 -65 63 -65 36 17 c84 37 240 91 281
98 l44 7 -45 28 c-50 31 -53 37 -63 101 -5 36 -3 49 15 71 18 23 27 27 63 24
23 -2 51 -7 62 -11z m1260 -25 c8 -25 -1 -40 -25 -40 -47 0 -67 29 -32 49 27
16 50 13 57 -9z m-2945 -42 c39 -43 18 -134 -24 -99 -7 6 -20 9 -28 6 -18 -7
-53 19 -44 33 4 7 21 12 38 12 29 0 30 1 25 35 -7 40 4 44 33 13z m1423 -18
c-3 -11 -7 -20 -9 -20 -2 0 -4 9 -4 20 0 11 4 20 9 20 5 0 7 -9 4 -20z m-1563
-4 c0 -3 -4 -8 -10 -11 -5 -3 -10 -1 -10 4 0 6 5 11 10 11 6 0 10 -2 10 -4z
m1539 -43 c-16 -18 -38 -16 -46 3 -4 11 1 22 13 31 16 12 20 11 31 -3 9 -13
10 -21 2 -31z m2256 17 c-3 -5 -10 -10 -16 -10 -5 0 -9 5 -9 10 0 6 7 10 16
10 8 0 12 -4 9 -10z m-880 -9 c7 -12 -12 -24 -25 -16 -11 7 -4 25 10 25 5 0
11 -4 15 -9z m628 -120 c34 -13 62 -76 48 -107 -6 -13 -19 -24 -28 -24 -17 -1
-17 -1 0 -14 23 -18 13 -42 -25 -55 -66 -23 -104 -7 -138 58 -9 18 -9 33 0 66
10 34 19 46 53 63 49 24 57 25 90 13z m-4093 -8 c-1 -14 -27 -43 -38 -43 -18
0 -24 20 -12 35 13 15 50 21 50 8z m3370 -32 c0 -28 -17 -35 -29 -12 -8 14 -8
21 2 24 22 10 27 7 27 -12z m-3654 -74 c25 -27 38 -58 26 -66 -4 -3 -18 -21
-31 -38 -29 -42 -70 -45 -100 -7 -29 37 -26 63 10 102 35 37 66 41 95 9z m994
19 c0 -2 -3 -11 -6 -20 -9 -23 -24 -20 -24 4 0 11 7 20 15 20 8 0 15 -2 15 -4z
m4520 -16 c0 -13 -7 -20 -19 -20 -25 0 -38 20 -20 31 23 15 39 10 39 -11z
m-50 -120 c0 -5 -4 -10 -10 -10 -5 0 -10 5 -10 10 0 6 5 10 10 10 6 0 10 -4
10 -10z m-4730 -49 c0 -14 -18 -23 -30 -16 -6 4 -8 11 -5 16 8 12 35 12 35 0z
m-485 -11 c-3 -5 -10 -10 -16 -10 -5 0 -9 5 -9 10 0 6 7 10 16 10 8 0 12 -4 9
-10z m-245 -30 c12 -30 35 -40 42 -19 3 9 9 9 25 0 27 -14 37 -44 24 -70 -6
-11 -11 -29 -11 -40 0 -24 -28 -41 -65 -41 -31 0 -54 20 -54 46 0 11 -5 44
-11 74 -10 48 -10 55 6 67 25 18 30 17 44 -17z m4608 13 c-4 -22 -22 -20 -26
1 -2 10 3 16 13 16 10 0 15 -7 13 -17z m-3602 -108 c1 -8 -4 -19 -11 -25 -10
-9 -16 -7 -24 9 -9 16 -8 22 6 30 20 11 26 8 29 -14z m4408 5 c66 -25 84 -134
32 -189 -18 -19 -34 -27 -47 -24 -10 3 -19 0 -19 -6 0 -21 -67 -12 -97 13 -36
30 -62 101 -45 118 7 7 12 19 12 28 0 17 35 54 60 63 25 9 77 8 104 -3z
m-1031 -26 c9 -10 -4 -34 -19 -34 -8 0 -14 6 -14 13 0 22 19 35 33 21z m-4183
-25 c0 -6 -4 -7 -10 -4 -5 3 -10 11 -10 16 0 6 5 7 10 4 6 -3 10 -11 10 -16z
m4155 -75 c0 -10 -8 -20 -18 -22 -22 -4 -35 27 -16 39 20 12 34 5 34 -17z
m-3215 -54 c0 -5 -4 -10 -9 -10 -6 0 -13 5 -16 10 -3 6 1 10 9 10 9 0 16 -4
16 -10z m-296 -62 c14 -20 14 -23 -4 -40 -42 -39 -99 -13 -80 36 13 34 61 37
84 4z m86 -2 c0 -18 -15 -36 -31 -36 -12 0 -19 7 -19 20 0 15 7 20 25 20 14 0
25 -2 25 -4z m-1052 -38 c2 -20 -1 -28 -12 -28 -8 0 -19 -7 -24 -17 -12 -20
-44 -10 -36 11 4 10 -2 15 -18 18 -13 2 -23 10 -23 18 0 17 37 29 80 27 25 -2
31 -7 33 -29z m5887 2 c-3 -5 -10 -10 -16 -10 -5 0 -9 5 -9 10 0 6 7 10 16 10
8 0 12 -4 9 -10z m-4695 -59 c0 -26 -17 -36 -35 -21 -18 15 -8 40 16 40 12 0
19 -7 19 -19z m-1070 -40 c0 -6 -4 -13 -10 -16 -5 -3 -10 1 -10 9 0 9 5 16 10
16 6 0 10 -4 10 -9z m960 -52 c0 -5 -7 -9 -15 -9 -8 0 -15 7 -15 15 0 9 6 12
15 9 8 -4 15 -10 15 -15z m-131 -59 c26 -14 35 -68 16 -97 -9 -13 -20 -21 -25
-18 -6 4 -10 1 -10 -4 0 -17 -13 -13 -42 12 -30 26 -35 41 -25 79 9 34 51 48
86 28z m3546 1 c3 -5 1 -13 -5 -16 -15 -9 -43 3 -35 15 8 13 32 13 40 1z
m-4215 -81 c-20 -13 -33 -13 -25 0 3 6 14 10 23 10 15 0 15 -2 2 -10z m4444
-11 c-3 -6 0 -15 7 -20 8 -5 16 -3 21 4 5 8 9 6 14 -6 8 -21 -21 -57 -45 -57
-9 0 -25 12 -35 27 -19 26 -19 26 5 44 27 21 44 25 33 8z m-4444 -29 c0 -28
-27 -45 -45 -30 -21 17 -19 30 6 30 11 0 18 4 15 8 -3 5 1 9 9 9 8 0 15 -8 15
-17z m260 -52 c0 -6 -7 -8 -15 -4 -9 3 -15 0 -15 -8 0 -7 -7 -19 -15 -26 -22
-18 -48 5 -35 30 10 19 80 26 80 8z m430 -33 c0 -27 -18 -45 -46 -45 -39 0
-48 61 -11 77 28 13 57 -4 57 -32z m395 25 c3 -5 -1 -10 -10 -10 -9 0 -13 5
-10 10 3 6 8 10 10 10 2 0 7 -4 10 -10z m-1085 -20 c0 -5 -4 -10 -10 -10 -5 0
-10 5 -10 10 0 6 5 10 10 10 6 0 10 -4 10 -10z m5640 -94 c0 -8 -5 -18 -11
-22 -14 -8 -33 11 -25 25 10 16 36 13 36 -3z m-1170 -27 c20 -36 -22 -64 -60
-39 -10 7 -11 12 -4 18 6 4 13 15 17 25 9 23 34 22 47 -4z m-3590 -3 c0 -11
-19 -15 -25 -6 -3 5 1 10 9 10 9 0 16 -2 16 -4z m172 -11 c0 -5 -5 -11 -11
-13 -6 -2 -11 4 -11 13 0 9 5 15 11 13 6 -2 11 -8 11 -13z m-357 -16 c0 -7 -8
-15 -17 -17 -18 -3 -25 18 -11 32 10 10 28 1 28 -15z m4945 -9 c0 -5 -2 -10
-4 -10 -3 0 -8 5 -11 10 -3 6 -1 10 4 10 6 0 11 -4 11 -10z m-5060 -49 c0 -17
4 -19 32 -10 45 12 58 11 58 -5 0 -16 27 -29 41 -20 23 14 46 -7 47 -44 1 -26
-1 -33 -8 -22 -12 19 -20 9 -45 -53 -61 -151 -233 -138 -260 20 -9 55 12 94
67 126 53 31 68 33 68 8z m5259 -18 c37 -21 43 -40 39 -113 -3 -49 -6 -56 -32
-69 -51 -24 -130 -41 -164 -35 -54 10 -95 71 -59 88 9 5 9 7 0 12 -7 3 -10 11
-8 17 2 7 6 27 9 46 6 43 17 53 69 68 51 14 105 9 146 -14z m-5852 -83 c18
-11 35 -31 39 -45 3 -14 10 -25 16 -25 8 0 4 -47 -8 -90 -6 -23 -61 -50 -103
-50 -40 0 -61 14 -61 40 0 9 -11 22 -25 28 -49 22 -27 113 35 144 45 23 67 23
107 -2z m163 -140 c4 0 15 -16 24 -35 20 -41 9 -72 -27 -80 -65 -15 -107 28
-80 82 15 32 36 44 61 37 8 -2 17 -4 22 -4z m4790 -80 c0 -5 -4 -10 -10 -10
-5 0 -10 5 -10 10 0 6 5 10 10 10 6 0 10 -4 10 -10z m-5191 -61 c16 -18 18
-25 8 -46 -9 -20 -17 -23 -46 -21 -30 3 -36 7 -39 29 -3 28 20 59 43 59 8 0
23 -10 34 -21z m236 11 c3 -5 15 -10 26 -10 28 0 34 -25 15 -65 -13 -28 -23
-35 -45 -35 -31 0 -71 32 -71 57 0 20 38 63 56 63 7 0 16 -4 19 -10z m271 -39
c-10 -16 -23 -14 -30 5 -9 25 4 38 21 21 9 -8 12 -20 9 -26z m871 -83 c-3 -8
-6 -5 -6 6 -1 11 2 17 5 13 3 -3 4 -12 1 -19z m-1601 -6 c1 -7 0 -8 -3 -2 -2
5 -9 8 -14 4 -5 -3 -9 0 -9 6 0 15 23 7 26 -8z m5489 4 c41 -30 22 -91 -27
-84 -29 4 -40 45 -20 76 17 26 22 27 47 8z m-845 -30 c9 -12 8 -15 -9 -13 -12
1 -21 7 -21 14 0 17 15 16 30 -1z m-2929 -62 c12 -14 11 -16 -5 -13 -11 2 -21
10 -24 17 -5 17 13 15 29 -4z m3929 -161 c0 -11 7 -13 25 -9 20 5 25 3 25 -14
0 -21 -33 -60 -51 -60 -6 0 -9 -12 -7 -27 2 -18 -5 -35 -19 -49 -32 -32 -50
-35 -87 -17 -36 17 -48 49 -41 103 2 14 4 31 4 38 1 6 12 12 26 12 28 0 55 22
75 59 l13 25 18 -23 c11 -13 19 -30 19 -38z m-4290 37 c0 -5 -9 -10 -20 -10
-11 0 -20 5 -20 10 0 6 9 10 20 10 11 0 20 -4 20 -10z m153 -3 c10 -6 20 -29
23 -49 6 -31 2 -40 -21 -62 -35 -33 -65 -33 -99 -1 -42 39 -31 106 19 118 37
9 61 7 78 -6z m3737 -92 c0 -16 -27 -32 -37 -22 -3 4 -3 13 0 22 8 20 37 20
37 0z m-4705 -66 c-3 -39 -14 -50 -42 -43 -40 11 -40 59 0 67 43 8 45 7 42
-24z m4722 5 c27 -7 46 -52 37 -88 -7 -30 -48 -66 -75 -66 -26 0 -59 48 -59
86 0 24 7 38 28 53 29 22 36 24 69 15z m-879 -56 c-3 -7 -11 -13 -18 -13 -7 0
-15 6 -17 13 -3 7 4 12 17 12 13 0 20 -5 18 -12z m-2226 -63 c9 -21 8 -28 -7
-45 -33 -37 -75 -19 -75 31 0 29 10 37 48 38 15 1 26 -8 34 -24z m2995 -1 c-3
-3 -12 -4 -19 -1 -8 3 -5 6 6 6 11 1 17 -2 13 -5z m-784 -148 c9 -23 -15 -46
-40 -40 -26 7 -39 34 -21 46 21 12 55 9 61 -6z m-2990 -16 c-5 -19 -32 -27
-46 -14 -12 12 6 34 28 34 18 0 22 -4 18 -20z m-368 -35 c20 -33 25 -52 20
-74 -8 -37 -56 -69 -109 -73 -31 -2 -43 3 -62 25 -59 69 -5 164 93 166 28 1
36 -5 58 -44z m1150 24 c-4 -5 -13 -9 -22 -9 -13 0 -13 3 -3 15 13 15 35 11
25 -6z m2035 -63 c0 -8 -4 -17 -9 -20 -10 -7 -23 19 -14 28 11 11 23 6 23 -8z
m2012 -108 c-7 -7 -12 -8 -12 -2 0 14 12 26 19 19 2 -3 -1 -11 -7 -17z m-950
-85 c23 -26 26 -54 11 -85 -11 -24 -20 -28 -53 -28 -67 0 -95 69 -44 109 33
26 66 27 86 4z m-4162 -43 c0 -5 -4 -10 -10 -10 -5 0 -10 5 -10 10 0 6 5 10
10 10 6 0 10 -4 10 -10z m5062 -182 c-7 -7 -12 -8 -12 -2 0 14 12 26 19 19 2
-3 -1 -11 -7 -17z m-4007 -166 c-11 -11 -27 17 -20 35 6 16 8 16 16 -6 5 -13
7 -26 4 -29z m3249 16 c8 -13 6 -22 -8 -37 -37 -41 -84 -13 -65 37 7 18 15 23
35 20 15 -2 32 -11 38 -20z m-1489 -108 c11 -5 14 -9 8 -9 -7 -1 -13 -6 -13
-11 0 -7 6 -7 20 0 18 10 20 8 20 -24 0 -33 -2 -35 -42 -44 -34 -7 -46 -6 -55
6 -18 22 -16 57 3 76 17 18 29 19 59 6z m1134 -24 c40 -43 11 -107 -54 -120
-34 -6 -59 8 -69 42 -11 33 2 61 37 83 42 25 59 24 86 -5z m793 -147 c66 -30
81 -119 33 -190 -16 -24 -34 -47 -39 -51 -10 -7 -139 57 -156 77 -6 7 -14 29
-17 49 -7 46 12 70 82 102 58 27 66 28 97 13z m-2164 -24 c-14 -31 -42 -29
-46 3 -3 19 1 22 27 22 29 0 30 -1 19 -25z m1922 -4 c0 -22 -19 -41 -41 -41
-20 0 -33 39 -19 56 14 16 60 5 60 -15z m-4367 -71 c8 0 22 9 32 20 10 11 30
20 45 20 69 0 57 -73 -14 -88 -30 -6 -41 -13 -40 -25 1 -9 -3 -17 -8 -17 -6 0
-8 -7 -4 -15 7 -18 -5 -19 -25 -2 -31 25 -49 67 -49 114 l1 48 24 -27 c13 -16
30 -28 38 -28z m-276 -159 c7 -9 13 -30 13 -48 0 -28 -4 -33 -32 -38 -32 -5
-76 -1 -86 9 -2 3 -1 21 2 40 11 60 70 81 103 37z m2493 -26 c58 -43 77 -124
43 -188 -9 -18 -16 -35 -15 -39 3 -13 -82 -51 -112 -50 -33 1 -94 28 -116 51
-48 50 -52 148 -8 192 26 26 105 57 149 58 14 1 40 -10 59 -24z m2244 -16 c37
-17 45 -67 16 -91 -29 -23 -55 -23 -80 2 -24 24 -25 48 -4 78 17 25 32 27 68
11z m-654 -29 c0 -5 -4 -10 -10 -10 -5 0 -10 5 -10 10 0 6 5 10 10 10 6 0 10
-4 10 -10z m514 -102 c18 -25 22 -103 6 -113 -12 -7 -39 52 -47 102 -4 26 -2
33 10 33 9 0 23 -10 31 -22z m-3877 -86 c6 -4 14 -19 18 -34 9 -36 -13 -58
-58 -58 -31 0 -36 4 -42 31 -11 49 40 88 82 61z m1210 -188 c8 -20 -17 -36
-34 -22 -10 8 -10 14 -2 24 15 18 28 18 36 -2z m-1100 -22 c18 -11 4 -52 -17
-52 -23 0 -34 28 -19 46 13 16 19 17 36 6z m673 -357 c0 -19 -20 -29 -32 -17
-15 15 -2 43 17 36 8 -3 15 -12 15 -19z"/>
<path d="M1035 5690 c-3 -5 -1 -10 4 -10 6 0 11 5 11 10 0 6 -2 10 -4 10 -3 0
-8 -4 -11 -10z"/>
<path d="M1310 5285 c0 -8 5 -15 10 -15 6 0 10 7 10 15 0 8 -4 15 -10 15 -5 0
-10 -7 -10 -15z"/>
<path d="M5110 4709 c0 -5 5 -7 10 -4 6 3 10 8 10 11 0 2 -4 4 -10 4 -5 0 -10
-5 -10 -11z"/>
<path d="M3152 3903 c-29 -2 -52 -8 -50 -13 3 -8 59 -70 296 -327 72 -79 132
-148 132 -153 0 -6 -128 -10 -339 -10 l-338 0 -76 80 c-88 93 -81 96 -123 -50
-24 -84 -27 -112 -27 -235 1 -145 13 -221 54 -330 23 -62 94 -175 109 -175 6
0 8 5 5 10 -11 18 37 11 51 -7 17 -22 18 -53 2 -53 -18 0 23 -40 77 -75 75
-48 166 -75 252 -75 l73 0 -6 29 c-5 25 -3 30 12 30 51 1 57 4 42 15 -13 9
-13 13 -2 24 7 6 17 12 22 12 15 0 35 -58 29 -81 -6 -21 -3 -21 46 -16 83 8
205 75 275 151 69 74 141 223 173 356 8 31 14 111 14 185 -1 184 -32 304 -113
435 -45 73 -91 120 -117 120 -25 0 -45 18 -45 40 0 9 -19 27 -42 40 -22 12
-38 18 -35 13 4 -6 0 -14 -9 -17 -22 -8 -32 3 -14 14 34 21 -181 77 -260 68
-8 -1 -39 -3 -68 -5z m-223 -734 c-7 -14 -14 -18 -21 -11 -13 13 -2 32 18 32
12 0 13 -4 3 -21z m845 6 c-4 -8 -10 -12 -15 -9 -14 8 -10 24 6 24 9 0 12 -6
9 -15z m-511 -161 c10 -10 -12 -44 -27 -44 -16 0 -29 27 -20 41 6 10 38 12 47
3z m317 -243 c0 -12 -20 -25 -27 -18 -7 7 6 27 18 27 5 0 9 -4 9 -9z"/>
<path d="M1150 3575 c0 -8 5 -15 10 -15 6 0 10 7 10 15 0 8 -4 15 -10 15 -5 0
-10 -7 -10 -15z"/>
<path d="M1160 3050 c0 -13 28 -25 38 -16 3 4 0 11 -8 16 -20 13 -30 12 -30 0z"/>
<path d="M6190 3105 c0 -8 5 -15 10 -15 6 0 10 7 10 15 0 8 -4 15 -10 15 -5 0
-10 -7 -10 -15z"/>
<path d="M393 2964 c-7 -19 2 -28 22 -21 19 8 19 23 0 31 -9 3 -18 -1 -22 -10z"/>
<path d="M630 2860 c0 -5 4 -10 9 -10 6 0 13 5 16 10 3 6 -1 10 -9 10 -9 0
-16 -4 -16 -10z"/>
</g>
</svg>
